<svg fill="none" height="20" viewBox="0 0 20 20" width="20" xmlns="http://www.w3.org/2000/svg"><g fill="#212121"><path d="m7 10c0 .5523-.44772 1-1 1s-1-.4477-1-1c0-.55228.44772-1 1-1s1 .44772 1 1z"/><path d="m11 10c0 .5523-.4477 1-1 1-.55228 0-1-.4477-1-1 0-.55228.44772-1 1-1 .5523 0 1 .44772 1 1z"/><path d="m15 10c0 .5523-.4477 1-1 1s-1-.4477-1-1c0-.55228.4477-1 1-1s1 .44772 1 1z"/><path d="m10 2c-4.41828 0-8 3.58172-8 8 0 4.4183 3.58172 8 8 8 4.4183 0 8-3.5817 8-8 0-4.41828-3.5817-8-8-8zm-7 8c0-3.86599 3.13401-7 7-7 3.866 0 7 3.13401 7 7 0 3.866-3.134 7-7 7-3.86599 0-7-3.134-7-7z"/></g></svg>